<svg id="Graphic_Elements" data-name="Graphic Elements" xmlns="http://www.w3.org/2000/svg" viewBox="0 0 1200 1200"><defs><style>.cls-1{fill:#222221;}</style></defs><path class="cls-1" d="M86.75,755.92a1.54,1.54,0,0,1-.2-1.81C92.71,743.56,102.84,735,115,729.92a65.24,65.24,0,0,1,20-4.8A66.61,66.61,0,0,1,191.43,749c9,10.62,14.8,23.11,18.56,35.75a96,96,0,0,1,3.6,19.33c.25,3.26.36,6.51.3,9.75-.06,1.62-.07,3.23-.19,4.84s-.28,3.27-.46,4.89a86.85,86.85,0,0,1-4.64,19,82.54,82.54,0,0,1-8.88,17.16A78.18,78.18,0,0,1,187.06,874a72,72,0,0,1-7.55,5.76c-1.28.91-2.67,1.68-4,2.5s-2.76,1.51-4.2,2.15a66.74,66.74,0,0,1-8.73,3.39,62.4,62.4,0,0,1-9.08,2c-1.51.25-3,.31-4.55.45h-.09c-1.52,0-3,.14-4.54.05a50.66,50.66,0,0,1-7.6-.71,1.54,1.54,0,0,1-1.28-1.67h0a1.52,1.52,0,0,1,1.49-1.38A53.58,53.58,0,0,0,152.21,884a55.68,55.68,0,0,0,7.69-3A58,58,0,0,0,167,876.8,62.26,62.26,0,0,0,179,866a65,65,0,0,0,8.71-13.38,68.85,68.85,0,0,0,7-30.29c0-1.29-.05-2.57-.08-3.87s-.2-2.61-.3-3.92c-.24-2.6-.65-5.17-1.12-7.72A74.79,74.79,0,0,0,188.82,792a62.86,62.86,0,0,0-17.38-23.82,83.77,83.77,0,0,0-11.3-8.33,77.19,77.19,0,0,0-12.2-6.26,64.33,64.33,0,0,0-28.09-4.55,74,74,0,0,0-7.71.82,76.64,76.64,0,0,0-7.9,1.65,118.63,118.63,0,0,0-15.37,5.21,1.54,1.54,0,0,1-1.71-.39Z"/><path class="cls-1" d="M212.57,550.89a3.13,3.13,0,0,1-2.41-2.93c-.67-24,3.19-48.21,9.88-71.4,2.49-8.1,5.29-16.13,8.46-24a275.33,275.33,0,0,1,23.87-45.8c3.23-4.8,6.43-9.68,9.92-14.35,4.17-6,9.13-11.49,13.71-17.16,135.55-155.9,390.55-132.77,502.29,39.28a320.11,320.11,0,0,1,25.77,48.13c38,88.67,32.35,195.48-24,274-1.65,2.21-3.28,4.41-5,6.56-2.78,3.72-5.94,7.2-9,10.66a3.11,3.11,0,0,1-3.76.7,3.25,3.25,0,0,1-2-4.47c26.73-54.5,35.41-116.91,25.61-176.61-.47-2.5-1.65-8.88-2.1-11.29s-2-8.75-2.54-11.2-2.34-8.72-3-11.09-2.66-8.56-3.41-11C722.87,370.54,545.42,289.73,391.22,351.52c-4.15,1.52-9.94,4.22-14.08,6-4.62,2.14-9.15,4.47-13.74,6.7C291.91,401.45,237.39,470.06,217,548.8A3.26,3.26,0,0,1,212.57,550.89Z"/><path class="cls-1" d="M386.77,859.6a3.12,3.12,0,0,1,2.36-2.65c22.67-5.73,39-17.68,51.63-32.31,1.67-1.81,3.17-3.87,4.73-5.75.73-1,2.6-3.54,3.31-4.49s2.44-3.61,3.13-4.62c1.14-1.88,2.83-4.43,3.87-6.35l1.85-3.22A188.71,188.71,0,0,0,469.77,773c.76-2,1.68-5,2.42-7.08.69-2.41,1.51-4.76,2.18-7.17s1.48-4.77,2-7.23a339.48,339.48,0,0,0,7.8-37.23,206.33,206.33,0,0,0,1.84-47.5c-3.54-36.62-17.17-73.47-42.3-100.7-1.49-1.7-3.83-3.87-5.43-5.49-1-.92-3.42-3-4.42-3.93s-3.5-2.78-4.55-3.62-2.11-1.48-3.16-2.23c-2.08-1.56-4.32-2.8-6.51-4.18A89.41,89.41,0,0,0,405.74,540a74.53,74.53,0,0,0-11.16-3.32c-1.27-.26-2.53-.64-3.82-.79l-3.88-.59c-1.29-.24-2.6-.24-3.91-.38s-2.63-.28-4-.26l-4-.06a101,101,0,0,0-47.14,12.88,123.47,123.47,0,0,0-14.48,9.1c-2.07,1.5-4.91,3.67-6.84,5.3-2.64,1.55-5.34,6.55-8.69,3.82a3.1,3.1,0,0,1-.38-4.22c18.41-23.85,45.23-42.38,75.61-47.29l4.88-.65c1.63-.25,3.28-.27,4.92-.41s3.3-.29,4.95-.25h5c1.67,0,3.32.17,5,.27a98.22,98.22,0,0,1,14.87,2.1,115.85,115.85,0,0,1,19.23,5.85,142.13,142.13,0,0,1,13.58,6.51c1.52.9,5,2.92,6.48,3.82s4.88,3.25,6.25,4.16c2.34,1.78,5.73,4.18,7.93,6.06,30.68,25.13,50.76,61,61.79,98.59a314.56,314.56,0,0,1,8.67,38.14c9.94,54.5-.57,109.86-38.9,151.8-2.42,2.52-4.73,5.09-7.34,7.44-1.28,1.19-2.53,2.39-3.84,3.54s-4.65,3.92-6.05,5c-2.06,1.51-4.29,3.21-6.37,4.65-3,1.9-5.82,3.89-8.95,5.54-18.07,10.3-39.46,15.63-60,12.47a69.5,69.5,0,0,1-16.66-4.79,3.16,3.16,0,0,1-1.9-3.26Z"/><path class="cls-1" d="M90.12,755.94a3.12,3.12,0,0,1-4.63-4.05,139.61,139.61,0,0,1,95.32-64.13c2.28-.42,5.88-.88,8.26-1.15,2.75-.2,5.43-.28,8.17-.41,59.08-2.17,101.63,27.18,137.4,70.4,36.62,44,66.37,87.32,123.18,103.42,15.63,4.81,32,7.34,48.38,8.76,80.29,6.83,165.77-23,222.54-81.29,20.71-21.71,36.62-47.66,44.75-76.89a3.11,3.11,0,0,1,6.11.71,148.12,148.12,0,0,1-4.07,39.05,176.79,176.79,0,0,1-12.46,35.23c-1.1,2.25-2.19,4.52-3.39,6.73-44.32,82.08-137.9,131.81-229.93,136.57-9,.41-18,.37-27,.11a262.47,262.47,0,0,1-62.38-9.54c-47.34-13-86.88-43.77-116.13-82.37-25.42-31.91-43.2-67.92-74.35-92.08a111.6,111.6,0,0,0-9.51-6.5C190.51,709.42,133.9,719.61,90.12,755.94Z"/><path class="cls-1" d="M1115,863.45a3.14,3.14,0,0,1-1.86,2.87c-45.09,19.38-94.11,26.14-143.64,21C893.56,879.83,822.33,839.57,768.74,786a587.38,587.38,0,0,1-55-63.43c-44.84-58.46-71.77-112.62-115-164.2l-1.87-2.21c-3.59-4.14-7.44-8.33-11.26-12a175,175,0,0,0-22.8-19.7,157.38,157.38,0,0,0-47.18-22.92c-1.9-.55-3.78-1.18-5.75-1.68l-2.75-.74c-1.14-.34-2.39-1.1-3.5-1.37-.74-.23-1.61-.55-2.36-.84-3.12-.5-6.44-1-9.58-1.27l-5.62-.52c-1.89-.14-3.78-.19-5.71-.31l-5.79-.07c-1.94,0-3.92,0-5.91.08s-4,.16-6,.35c-58.35,4.26-111,36.62-158.85,72a3.12,3.12,0,0,1-3.38.19l-4.66-2.66a3.13,3.13,0,0,1-1.19-4.22c37-67.91,99.33-126.57,177.26-141.55a236.22,236.22,0,0,1,23.41-3.29c3.67-.18,7.43-.66,11.08-.48l4.42.11c4.14.16,8.67.42,12.78.75,257,23.42,222.73,386.11,526.65,433.26A493.12,493.12,0,0,0,1112,855a3.11,3.11,0,0,1,3,3.1Z"/></svg>